<svg width="174" height="57" viewBox="0 0 174 57" fill="none" xmlns="http://www.w3.org/2000/svg">
<g clip-path="url(#clip0_118_1467)">
<path d="M0.333984 38.6106C0.333984 34.5163 3.65308 31.1973 7.74739 31.1973H19.1446C23.2389 31.1973 26.558 34.5163 26.558 38.6106V50.0076C26.558 54.1018 23.2389 57.4209 19.1446 57.4209H1.94559C1.05552 57.4209 0.333984 56.6993 0.333984 55.8093V38.6106Z" fill="#1C1D1F"/>
<path d="M8.06641 50.4674V37.7969H10.7453V43.0247H16.1836V37.7969H18.8563V50.4674H16.1836V45.2334H10.7453V50.4674H8.06641Z" fill="#FEE9E5"/>
<path d="M63.335 38.6106C63.335 34.5163 60.0159 31.1973 55.9216 31.1973H44.5244C40.4301 31.1973 37.111 34.5163 37.111 38.6106V50.0076C37.111 54.1018 40.4301 57.4209 44.5244 57.4209H61.7234C62.6134 57.4209 63.335 56.6993 63.335 55.8093V38.6106Z" fill="#1C1D1F"/>
<path d="M56.1565 44.1325C56.1565 45.5143 55.8946 46.6898 55.3708 47.659C54.8511 48.6283 54.1416 49.3686 53.2425 49.8801C52.3474 50.3874 51.341 50.6411 50.2233 50.6411C49.0973 50.6411 48.0867 50.3853 47.1917 49.8739C46.2967 49.3625 45.5893 48.6221 45.0696 47.6528C44.5499 46.6836 44.29 45.5101 44.29 44.1325C44.29 42.7508 44.5499 41.5753 45.0696 40.6061C45.5893 39.6368 46.2967 38.8985 47.1917 38.3912C48.0867 37.8797 49.0973 37.624 50.2233 37.624C51.341 37.624 52.3474 37.8797 53.2425 38.3912C54.1416 38.8985 54.8511 39.6368 55.3708 40.6061C55.8946 41.5753 56.1565 42.7508 56.1565 44.1325ZM53.4404 44.1325C53.4404 43.2375 53.3064 42.4827 53.0383 41.8682C52.7743 41.2536 52.4011 40.7875 51.9185 40.47C51.4359 40.1524 50.8708 39.9936 50.2233 39.9936C49.5757 39.9936 49.0106 40.1524 48.5281 40.47C48.0455 40.7875 47.6701 41.2536 47.402 41.8682C47.1381 42.4827 47.0061 43.2375 47.0061 44.1325C47.0061 45.0276 47.1381 45.7824 47.402 46.3969C47.6701 47.0115 48.0455 47.4775 48.5281 47.7951C49.0106 48.1127 49.5757 48.2715 50.2233 48.2715C50.8708 48.2715 51.4359 48.1127 51.9185 47.7951C52.4011 47.4775 52.7743 47.0115 53.0383 46.3969C53.3064 45.7824 53.4404 45.0276 53.4404 44.1325Z" fill="#E1F0FF"/>
<path d="M73.8887 50.0076C73.8887 54.1018 77.2078 57.4209 81.3021 57.4209H92.6993C96.7936 57.4209 100.113 54.1019 100.113 50.0076V38.6106C100.113 34.5163 96.7936 31.1973 92.6993 31.1973H75.5003C74.6102 31.1973 73.8887 31.9188 73.8887 32.8089V50.0076Z" fill="#1C1D1F"/>
<path d="M89.5745 37.7969H92.2534V46.0253C92.2534 46.9492 92.0327 47.7576 91.5914 48.4505C91.1542 49.1435 90.5417 49.6838 89.7539 50.0715C88.9661 50.4551 88.0484 50.6469 87.0007 50.6469C85.9489 50.6469 85.0292 50.4551 84.2414 50.0715C83.4536 49.6838 82.8411 49.1435 82.4039 48.4505C81.9667 47.7576 81.748 46.9492 81.748 46.0253V37.7969H84.427V45.7964C84.427 46.279 84.5321 46.7079 84.7425 47.0833C84.957 47.4586 85.2581 47.7535 85.6458 47.968C86.0335 48.1825 86.4851 48.2897 87.0007 48.2897C87.5204 48.2897 87.9721 48.1825 88.3556 47.968C88.7434 47.7535 89.0424 47.4586 89.2527 47.0833C89.4672 46.7079 89.5745 46.279 89.5745 45.7964V37.7969Z" fill="#FFF1C5"/>
<path d="M136.891 50.0076C136.891 54.1018 133.572 57.4209 129.477 57.4209H118.08C113.986 57.4209 110.667 54.1019 110.667 50.0076V38.6106C110.667 34.5163 113.986 31.1973 118.08 31.1973H135.279C136.169 31.1973 136.891 31.9188 136.891 32.8089V50.0076Z" fill="#1C1D1F"/>
<path d="M126.049 41.4413C125.999 40.9422 125.787 40.5545 125.411 40.2782C125.036 40.0018 124.527 39.8636 123.883 39.8636C123.446 39.8636 123.077 39.9255 122.776 40.0493C122.475 40.1689 122.244 40.3359 122.083 40.5504C121.926 40.7649 121.848 41.0082 121.848 41.2804C121.839 41.5073 121.887 41.7053 121.99 41.8744C122.097 42.0435 122.244 42.1899 122.429 42.3136C122.615 42.4332 122.829 42.5384 123.073 42.6291C123.316 42.7158 123.576 42.79 123.852 42.8519L124.991 43.1241C125.543 43.2478 126.051 43.4128 126.513 43.619C126.975 43.8253 127.375 44.0789 127.713 44.38C128.051 44.6811 128.313 45.0358 128.499 45.4441C128.688 45.8525 128.785 46.3206 128.789 46.8485C128.785 47.624 128.587 48.2963 128.195 48.8654C127.808 49.4305 127.247 49.8698 126.513 50.1832C125.783 50.4926 124.902 50.6472 123.871 50.6472C122.848 50.6472 121.957 50.4905 121.198 50.177C120.443 49.8636 119.853 49.3996 119.429 48.785C119.008 48.1663 118.787 47.4012 118.767 46.4897H121.359C121.388 46.9145 121.509 47.2692 121.724 47.5538C121.943 47.8343 122.233 48.0467 122.596 48.1911C122.963 48.3313 123.378 48.4014 123.84 48.4014C124.294 48.4014 124.687 48.3354 125.022 48.2035C125.36 48.0715 125.622 47.8879 125.807 47.6528C125.993 47.4177 126.086 47.1476 126.086 46.8424C126.086 46.5578 126.001 46.3185 125.832 46.1247C125.667 45.9308 125.424 45.7659 125.102 45.6297C124.784 45.4936 124.395 45.3699 123.933 45.2585L122.553 44.9121C121.485 44.6522 120.641 44.246 120.023 43.6933C119.404 43.1406 119.097 42.3961 119.101 41.4598C119.097 40.6927 119.301 40.0224 119.713 39.4491C120.13 38.8758 120.701 38.4283 121.427 38.1066C122.153 37.7849 122.978 37.624 123.902 37.624C124.842 37.624 125.663 37.7849 126.364 38.1066C127.069 38.4283 127.618 38.8758 128.01 39.4491C128.402 40.0224 128.604 40.6865 128.616 41.4413H126.049Z" fill="#F5E4FF"/>
<path d="M147.443 38.6106C147.443 34.5163 150.762 31.1973 154.857 31.1973H166.254C170.348 31.1973 173.667 34.5163 173.667 38.6106V50.0076C173.667 54.1018 170.348 57.4209 166.254 57.4209H149.055C148.165 57.4209 147.443 56.6993 147.443 55.8093V38.6106Z" fill="#1C1D1F"/>
<path d="M156.273 50.4674V37.7969H164.811V40.0056H158.952V43.0247H164.372V45.2334H158.952V48.2588H164.836V50.4674H156.273Z" fill="#E1FFEE"/>
<path fill-rule="evenodd" clip-rule="evenodd" d="M41.5511 22.6788L46.9687 22.5231V20.4822L44.4876 19.8976V-0.308594L38.596 -0.153141V1.88834L41.0772 2.47298V6.79176C40.2591 6.54009 39.4179 6.41422 38.5544 6.41422C35.9558 6.41422 33.95 7.19688 32.5801 8.7951L32.5795 8.79576C31.23 10.3817 30.5679 12.5014 30.5679 15.1281C30.5679 17.5181 31.0833 19.43 32.1427 20.8359L32.1434 20.8368C33.2258 22.26 34.8406 22.9578 36.9431 22.9578C38.614 22.9578 40.0882 22.3894 41.3574 21.2625L41.5511 22.6788ZM34.1209 14.8429C34.1209 16.5291 34.4118 17.835 34.9705 18.7819C35.5212 19.6903 36.3601 20.1463 37.5277 20.1463C38.2328 20.1463 38.8409 19.993 39.3596 19.694L39.3612 19.6931C39.9141 19.3798 40.3361 19.0449 40.6361 18.6921L40.6383 18.6894C40.8035 18.5006 40.924 18.3558 41.0021 18.2532C41.0382 18.2057 41.0624 18.171 41.0772 18.1474V9.73248L41.0733 9.73085C41.005 9.70222 40.9131 9.66696 40.7962 9.62489L40.7906 9.62286L40.785 9.62055C40.5808 9.53544 40.2586 9.44883 39.8071 9.36418C39.3694 9.2821 38.8527 9.24002 38.255 9.24002C36.8553 9.24002 35.8409 9.7036 35.1667 10.604C34.4826 11.5177 34.1209 12.9174 34.1209 14.8429ZM53.9063 3.81338L53.9085 3.81121C54.3547 3.38676 54.5689 2.8195 54.5689 2.13744C54.5689 1.42001 54.4036 0.836535 54.0301 0.432108C53.6532 0.0240245 53.1037 -0.15956 52.4288 -0.15956C51.8431 -0.15956 51.3351 0.0453685 50.9184 0.451434C50.4894 0.869369 50.2887 1.44264 50.2887 2.13744C50.2887 2.81856 50.4726 3.3841 50.8688 3.80224C51.2647 4.22015 51.794 4.42017 52.4288 4.42017C52.9811 4.42017 53.4761 4.212 53.9063 3.81338ZM50.8733 19.9079L48.3921 20.6352V22.6725H56.4654V20.642L54.2837 19.9148V6.70709L48.3921 6.86254V8.88976L50.8733 9.4744V19.9079ZM71.8943 20.2151L70.6807 18.4283L70.476 18.585C70.4427 18.6105 70.4142 18.6328 70.3876 18.6537C70.2563 18.7564 70.171 18.8232 69.7872 19.0536C69.3315 19.3176 68.7456 19.5676 68.0249 19.8016C67.3197 20.0306 66.5516 20.1462 65.7188 20.1462C64.5251 20.1462 63.5733 19.7019 62.8416 18.8097C62.1454 17.9518 61.7681 16.8123 61.7304 15.3702L71.7651 15.3134L71.804 15.1187C71.8252 15.0128 71.8548 14.7987 71.8926 14.4871C71.9318 14.1637 71.9514 13.8402 71.9514 13.5167C71.9514 11.1991 71.434 9.41547 70.3565 8.21012C69.2743 6.99957 67.6651 6.41415 65.5762 6.41415C64.1441 6.41415 62.8567 6.78272 61.7214 7.52318L61.7206 7.52371C60.5979 8.26234 59.7236 9.276 59.0974 10.5578L59.0967 10.5591C58.4802 11.841 58.1743 13.2704 58.1743 14.8428C58.1743 17.3516 58.7727 19.3444 60.0004 20.7899L60.001 20.7907C61.2472 22.2462 63.0676 22.9577 65.4193 22.9577C66.4837 22.9577 67.4924 22.777 68.4436 22.4141L68.4449 22.4137C69.3887 22.0477 70.1859 21.6452 70.8326 21.2042L70.8332 21.2038C71.1524 20.9847 71.3944 20.8138 71.5576 20.692C71.6386 20.6316 71.7039 20.5804 71.7505 20.5401C71.7731 20.5206 71.7966 20.4989 71.8164 20.4771C71.8259 20.4666 71.8399 20.4502 71.8529 20.4296L71.8532 20.4292C71.8611 20.4167 71.8943 20.3642 71.8943 20.29V20.2151ZM67.6419 10.1885L67.644 10.1914C68.0865 10.8224 68.3331 11.6491 68.366 12.6884H61.8682C61.9921 11.7103 62.3411 10.8974 62.9084 10.2395C63.5217 9.53919 64.3494 9.1829 65.4193 9.1829C66.4729 9.1829 67.1946 9.53004 67.6419 10.1885ZM2.96162 19.8974L0.480469 20.4821V22.6725H8.99578V20.4821L6.51462 19.8974V4.51197L8.99578 3.92732V1.73209L0.480469 1.89847V3.92732L2.96162 4.51197V19.8974ZM26.6771 11.9194C26.6771 10.2293 26.2789 8.87823 25.4507 7.89828C23.1081 5.40885 19.3461 6.34089 16.511 8.55748L16.2813 6.70701L11.0036 6.86316V8.88962L13.4847 9.47427V19.9078L11.0036 20.635V22.6724H18.7916V20.65L16.8951 19.9227V11.5491C16.9158 11.5245 16.9457 11.491 16.9862 11.4478C17.087 11.3401 17.2408 11.1851 17.4492 10.9814C17.8496 10.5901 18.3498 10.222 18.953 9.87853C19.5427 9.54808 20.1857 9.3824 20.8866 9.3824C21.7795 9.3824 22.3649 9.6189 22.7095 10.0355C23.0652 10.4658 23.2667 11.1722 23.2667 12.2046V19.9227L21.3702 20.65V22.6724H28.8589V20.6419L26.6771 19.9107V11.9194Z" fill="#1C1D1F"/>
<path fill-rule="evenodd" clip-rule="evenodd" d="M136.523 6.8626V8.87657L137.711 9.25117L135.744 12.5469H133.645V-0.307617L127.753 -0.152164V1.88932L130.234 2.47396V19.909L127.753 20.6362V22.6736H135.541V20.6512L133.645 19.9239V15.2301H135.797L139.975 22.6736H144.311V20.6427L142.001 19.8778L138.365 13.5282L141.227 9.28239L143.427 8.90313V6.70918L136.523 6.8626ZM157.27 18.7277C157.157 18.8044 156.984 18.913 156.748 19.0545C156.293 19.3185 155.707 19.5686 154.986 19.8026C154.281 20.0315 153.513 20.1472 152.68 20.1472C151.486 20.1472 150.535 19.7029 149.803 18.8108C149.107 17.9529 148.729 16.8134 148.692 15.3712L158.726 15.3144L158.765 15.1197C158.786 15.0138 158.816 14.7997 158.854 14.4881C158.893 14.1647 158.912 13.8412 158.912 13.5176C158.912 11.2001 158.395 9.41644 157.318 8.2111C156.235 7.00055 154.626 6.41512 152.537 6.41512C151.105 6.41512 149.818 6.78369 148.682 7.52415L148.682 7.52469C147.559 8.26332 146.685 9.27698 146.058 10.5588L146.058 10.5601C145.441 11.842 145.135 13.2714 145.135 14.8438C145.135 17.3525 145.734 19.3454 146.962 20.7909L146.962 20.7916C148.208 22.2471 150.029 22.9587 152.38 22.9587C153.445 22.9587 154.453 22.778 155.405 22.4151L155.406 22.4146C156.35 22.0487 157.147 21.6462 157.794 21.2052L157.794 21.2048C158.113 20.9857 158.355 20.8147 158.519 20.693C158.6 20.6325 158.665 20.5814 158.712 20.5411C158.734 20.5215 158.758 20.4999 158.777 20.4781C158.787 20.4675 158.801 20.4512 158.814 20.4306C158.822 20.4187 158.855 20.3659 158.855 20.291V20.2161L157.641 18.4294C157.641 18.4294 157.421 18.6224 157.342 18.6774C157.323 18.6913 157.299 18.708 157.27 18.7277ZM154.603 10.1895L154.605 10.1924C155.048 10.8233 155.294 11.6501 155.327 12.6894H148.829C148.953 11.7112 149.302 10.8984 149.87 10.2405C150.483 9.54016 151.311 9.18388 152.38 9.18388C153.434 9.18388 154.156 9.53101 154.603 10.1895ZM126.217 7.60684C126.085 7.54602 125.783 7.42451 125.321 7.24517C124.839 7.04872 124.222 6.86501 123.476 6.69262C122.715 6.50754 121.936 6.41512 121.138 6.41512C119.57 6.41512 118.19 6.76598 117.006 7.47615C115.825 8.1752 114.91 9.15555 114.262 10.4115L114.262 10.4128C113.624 11.6684 113.308 13.095 113.308 14.6869C113.308 17.2635 113.941 19.3011 115.238 20.7661C116.541 22.2385 118.426 22.9587 120.853 22.9587C121.833 22.9587 122.772 22.7821 123.666 22.4283L123.667 22.4278C124.553 22.0715 125.306 21.6837 125.923 21.2628C126.228 21.0581 126.459 20.8979 126.615 20.7832C126.693 20.7263 126.756 20.6776 126.801 20.6388C126.823 20.62 126.846 20.5987 126.866 20.5768C126.875 20.5662 126.89 20.5496 126.903 20.5287C126.911 20.5153 126.943 20.4637 126.943 20.3908V20.3247L125.731 18.2537L125.508 18.4571C125.482 18.4809 125.459 18.502 125.439 18.5212C125.305 18.6451 125.251 18.6945 124.891 18.9506C124.483 19.2312 123.951 19.5034 123.287 19.7649C122.644 20.0185 121.929 20.1472 121.138 20.1472C119.788 20.1472 118.755 19.6669 118.007 18.715C117.255 17.7477 116.861 16.3219 116.861 14.4017C116.861 12.6337 117.236 11.3502 117.945 10.5089C118.65 9.67101 119.655 9.24092 120.995 9.24092C121.594 9.24092 122.138 9.27834 122.627 9.35227C122.991 9.4071 123.248 9.45075 123.407 9.48318L123.857 12.0073H126.192L126.364 7.67506L126.217 7.60684ZM105.993 11.4785V13.5735H103.898C101.72 13.5735 100.01 13.9274 98.7958 14.6636C97.5475 15.4109 96.9383 16.6556 96.9383 18.3374C96.9383 19.7713 97.3373 20.9192 98.1646 21.7466L98.1657 21.7477C98.9929 22.5647 100.135 22.9587 101.56 22.9587C102.524 22.9587 103.434 22.7196 104.288 22.2434L104.289 22.2429C105.009 21.837 105.657 21.3701 106.232 20.842L106.784 22.6793L111.742 22.5234V20.4858L109.403 19.9011V11.1933C109.403 9.53329 108.929 8.28658 107.925 7.52063C106.952 6.77113 105.55 6.41512 103.755 6.41512C102.995 6.41512 102.189 6.50772 101.338 6.69126C100.497 6.8633 99.763 7.04554 99.1362 7.23834C98.5314 7.4179 98.1422 7.53926 97.9804 7.59993L97.8157 7.66171L97.9743 11.7221H100.307L100.73 9.47375C100.805 9.45283 100.906 9.42491 101.037 9.38967C101.282 9.32624 101.619 9.26126 102.052 9.19537C102.476 9.13096 102.943 9.09832 103.456 9.09832C104.321 9.09832 104.942 9.31211 105.357 9.70242C105.769 10.09 105.993 10.6682 105.993 11.4785ZM76.0622 19.8984L73.5811 20.483V22.6735H82.3958V20.4782L79.6152 19.8935V13.3334H88.91V19.8938L86.1437 20.4784V22.6735H94.9442V20.483L92.463 19.8984V4.51294L94.9442 3.9283V1.73324L86.1437 1.89929V3.93292L88.91 4.51757V10.5076H79.6152V4.51778L82.3958 3.93313V1.73325L73.5811 1.89928V3.9283L76.0622 4.51294V19.8984ZM101.218 16.5047C101.785 16.153 102.763 15.9572 104.198 15.9572H105.993V17.9821C105.973 18.0067 105.943 18.0403 105.904 18.0838C105.805 18.1915 105.655 18.3465 105.451 18.5502C105.058 18.943 104.58 19.3116 104.014 19.6549C103.47 19.9847 102.901 20.1472 102.301 20.1472C101.687 20.1472 101.234 19.9651 100.909 19.6239C100.58 19.2789 100.406 18.8114 100.406 18.1948C100.406 17.385 100.686 16.8406 101.218 16.5047ZM168.044 7.22477C167.435 7.63297 166.889 8.07294 166.407 8.54499L166.185 6.70603L160.906 6.8622V8.88867L163.388 9.47331V19.8988L160.906 20.6341V22.6715H169.721V20.6261L166.798 19.8988V11.5022C167.219 10.9631 167.757 10.4752 168.414 10.0397C169.024 9.63566 169.747 9.41487 170.589 9.38496L171.016 11.5774H173.364L173.52 6.92512L173.348 6.8676C173.283 6.84591 173.124 6.80141 172.882 6.73624L171.9 6.51641C171.505 6.44727 171.087 6.41305 170.647 6.41305C169.712 6.41305 168.843 6.68534 168.044 7.22477Z" fill="#1C1D1F"/>
</g>
<defs>
<clipPath id="clip0_118_1467">
<rect width="174" height="57" fill="white"/>
</clipPath>
</defs>
</svg>
